<svg width="43" height="42" viewBox="0 0 43 42" fill="none" xmlns="http://www.w3.org/2000/svg">
<path d="M23.6 6.30005C23.043 6.30005 22.5089 6.5213 22.1151 6.91512C21.7212 7.30895 21.5 7.84309 21.5 8.40005C21.5 8.957 21.7212 9.49115 22.1151 9.88497C22.5089 10.2788 23.043 10.5 23.6 10.5H29.0306L15.8153 23.7153C15.6147 23.9091 15.4547 24.1408 15.3447 24.397C15.2346 24.6532 15.1767 24.9288 15.1743 25.2076C15.1719 25.4864 15.225 25.763 15.3306 26.0211C15.4362 26.2791 15.5921 26.5136 15.7893 26.7108C15.9864 26.908 16.2209 27.0639 16.479 27.1695C16.7371 27.2751 17.0136 27.3282 17.2924 27.3258C17.5713 27.3234 17.8468 27.2654 18.103 27.1554C18.3593 27.0453 18.591 26.8853 18.7847 26.6847L32 13.4694V18.9C32 19.457 32.2212 19.9911 32.6151 20.385C33.0089 20.7788 33.543 21 34.1 21C34.657 21 35.1911 20.7788 35.5849 20.385C35.9788 19.9911 36.2 19.457 36.2 18.9V8.40005C36.2 7.84309 35.9788 7.30895 35.5849 6.91512C35.1911 6.5213 34.657 6.30005 34.1 6.30005H23.6Z" fill="black"/>
<path d="M11 10.5C9.88608 10.5 8.81779 10.9425 8.03014 11.7302C7.24249 12.5178 6.79999 13.5861 6.79999 14.7V31.5C6.79999 32.6139 7.24249 33.6822 8.03014 34.4698C8.81779 35.2575 9.88608 35.7 11 35.7H27.8C28.9139 35.7 29.9822 35.2575 30.7698 34.4698C31.5575 33.6822 32 32.6139 32 31.5V25.2C32 24.643 31.7787 24.1089 31.3849 23.7151C30.9911 23.3212 30.4569 23.1 29.9 23.1C29.343 23.1 28.8089 23.3212 28.4151 23.7151C28.0212 24.1089 27.8 24.643 27.8 25.2V31.5H11V14.7H17.3C17.8569 14.7 18.3911 14.4788 18.7849 14.0849C19.1787 13.6911 19.4 13.157 19.4 12.6C19.4 12.043 19.1787 11.5089 18.7849 11.1151C18.3911 10.7212 17.8569 10.5 17.3 10.5H11Z" fill="black"/>
</svg>
